<svg width="256" height="256" viewBox="0 0 256 256" xmlns="http://www.w3.org/2000/svg">
  <defs>
    <linearGradient id="grad" x1="0%" y1="100%" x2="100%" y2="0%">
      <stop offset="0%" stop-color="#f59e0b" />
      <stop offset="100%" stop-color="#ea580c" />
    </linearGradient>
    <filter id="shadow" x="-20%" y="-20%" width="140%" height="140%">
      <feDropShadow dx="0" dy="8" stdDeviation="12" flood-color="#f59e0b" flood-opacity="0.3"/>
    </filter>
  </defs>
  
  <rect x="32" y="32" width="192" height="192" rx="48" fill="url(#grad)" filter="url(#shadow)" />
  
  <!-- Lucide Beer icon -->
  <g transform="translate(64, 64) scale(5.333)" stroke="white" stroke-width="2" fill="none" stroke-linecap="round" stroke-linejoin="round">
    <path d="M17 11h1a3 3 0 0 1 0 6h-1"/>
    <path d="M9 12v6"/>
    <path d="M13 12v6"/>
    <path d="M14 7.5c-1 0-1.44.5-3 .5s-2-.5-3-.5-1.72.5-2.5.5a2.5 2.5 0 0 1 0-5c.78 0 1.57.5 2.5.5S9.44 2 11 2s2 1.5 3 1.5 1.72-.5 2.5-.5a2.5 2.5 0 0 1 0 5c-.78 0-1.5 0-2.5-.5Z"/>
    <path d="M5 8v12a2 2 0 0 0 2 2h8a2 2 0 0 0 2-2V8"/>
  </g>
</svg>
